# xmcd
#
# Track frame offsets: 
#        150
#        13145
#        29857
#        53440
#        79815
#        102770
#        140215
#        162985
#        170957
#        185447
#
# Disc length: 2757 seconds
#
# Revision: 0
# Processed by: cddbd v1.5.2PL0 Copyright (c) Steve Scherf et al.
# Submitted via: ExactAudioCopy v0.95b3
#
DISCID=8b0ac30a
DTITLE=Mc5  - Recorded at the Sturgis Armory- The Live Bootleg Antholo
DTITLE=gy CD1
DYEAR=1900
DGENRE=
TTITLE0=Ramblin' Rose
TTITLE1=Kick Out the Jams
TTITLE2=Come Together
TTITLE3=Revolutionary Blues
TTITLE4=I'm the Man for You (Rama Lama Fa Fa Fa)
TTITLE5=James Brown Medley: Cold Sweat\\I Can't Stand Mysel
TTITLE6=Upper Egypt
TTITLE7=Tutti Frutti
TTITLE8=Borderline
TTITLE9=Born Under a Bad Sign
EXTD=
EXTT0=
EXTT1=
EXTT2=
EXTT3=
EXTT4=
EXTT5=
EXTT6=
EXTT7=
EXTT8=
EXTT9=
PLAYORDER=
